<?xml version="1.0" ?><!DOCTYPE svg  PUBLIC '-//W3C//DTD SVG 1.1//EN'  'http://www.w3.org/Graphics/SVG/1.1/DTD/svg11.dtd'><svg height="100%" style="fill-rule:evenodd;clip-rule:evenodd;stroke-linejoin:round;stroke-miterlimit:1.41421;" version="1.1" viewBox="0 0 100 100" width="100%" xml:space="preserve" xmlns="http://www.w3.org/2000/svg" xmlns:xlink="http://www.w3.org/1999/xlink"><g transform="matrix(0.707107,-0.707107,0.707107,0.707107,-32.0182,65.2006)"><path d="M57.112,25.834L57.131,25.833C64.894,25.833 72.663,25.533 80.42,25.838C80.538,25.852 80.652,25.87 80.765,25.907C81.027,25.992 81.264,26.15 81.442,26.359C81.544,26.479 81.628,26.614 81.688,26.759C81.748,26.904 81.785,27.059 81.797,27.216C81.813,27.413 81.788,27.611 81.727,27.797L81.727,41.444L82.579,41.444L82.702,41.449C82.743,41.454 82.785,41.458 82.825,41.464C82.948,41.485 83.067,41.521 83.181,41.57C83.562,41.738 83.862,42.063 83.997,42.457C84.038,42.574 84.063,42.697 84.073,42.82C84.077,42.861 84.077,42.903 84.079,42.944L84.079,51.753C84.077,51.794 84.077,51.836 84.073,51.877C84.063,52 84.038,52.123 83.997,52.24C83.848,52.674 83.5,53.023 83.066,53.172C82.948,53.212 82.826,53.238 82.702,53.248C82.661,53.251 82.62,53.251 82.579,53.253L75.24,53.253C75.255,59.466 75.354,65.679 75.236,71.89C75.226,72.191 75.2,72.49 75.151,72.787C75.042,73.441 74.832,74.078 74.53,74.668C74.128,75.452 73.566,76.151 72.886,76.712C72.405,77.109 71.866,77.436 71.29,77.68C70.091,78.187 68.744,78.318 67.469,78.057C66.898,77.94 66.344,77.746 65.826,77.48C65.226,77.173 64.676,76.771 64.199,76.295C63.649,75.744 63.198,75.095 62.878,74.385C62.625,73.827 62.453,73.233 62.369,72.626C62.331,72.355 62.312,72.082 62.306,71.807C62.267,65.623 62.3,59.438 62.305,53.253L54.965,53.253C54.924,53.251 54.883,53.251 54.841,53.248C54.718,53.238 54.596,53.212 54.478,53.172C54.044,53.023 53.696,52.674 53.547,52.24C53.506,52.123 53.481,52 53.47,51.877C53.467,51.836 53.467,51.794 53.465,51.753L53.465,42.944C53.467,42.903 53.467,42.861 53.47,42.82C53.481,42.697 53.506,42.574 53.547,42.457C53.696,42.023 54.044,41.674 54.478,41.525C54.596,41.485 54.718,41.459 54.841,41.449C54.883,41.446 54.924,41.446 54.965,41.444L55.631,41.444L55.631,27.333C55.631,27.328 55.631,27.323 55.632,27.318C55.633,27.224 55.643,27.131 55.661,27.039C55.673,26.979 55.688,26.92 55.708,26.861C55.746,26.746 55.797,26.638 55.861,26.537C55.92,26.442 55.99,26.353 56.07,26.273C56.181,26.162 56.309,26.07 56.447,25.999C56.501,25.971 56.556,25.947 56.613,25.926C56.625,25.921 56.636,25.917 56.648,25.913C56.692,25.898 56.736,25.886 56.781,25.875C56.851,25.858 56.92,25.848 56.989,25.842C57.02,25.839 57.052,25.836 57.083,25.834L57.112,25.834ZM65.306,53.253C65.306,59.455 65.113,65.66 65.309,71.859C65.312,71.948 65.319,72.036 65.329,72.124C65.388,72.618 65.548,73.093 65.807,73.519C66.038,73.899 66.342,74.234 66.698,74.501C66.978,74.71 67.289,74.877 67.619,74.993C68.534,75.315 69.571,75.234 70.424,74.771C70.742,74.598 71.032,74.376 71.281,74.114C71.55,73.832 71.772,73.504 71.932,73.149C72.136,72.699 72.235,72.213 72.238,71.719L72.238,53.253C69.927,53.253 67.617,53.253 65.306,53.253ZM73.735,50.253L81.079,50.253L81.079,44.444C72.874,44.444 64.67,44.444 56.465,44.444L56.465,50.253L63.813,50.253C67.12,50.253 70.43,50.129 73.735,50.253ZM78.727,28.833L77.108,28.833L77.108,41.444L78.727,41.444L78.727,28.833ZM72.489,28.833L72.489,41.444L74.108,41.444L74.108,28.833L72.489,28.833ZM67.87,28.833L67.87,41.444L69.489,41.444L69.489,28.833L67.87,28.833ZM63.25,28.833L63.25,41.444L64.87,41.444L64.87,28.833L63.25,28.833ZM58.631,28.833L58.631,41.444L60.25,41.444L60.25,28.833L58.631,28.833Z" style="fill:black;"/></g></svg>